<?xml version="1.0" standalone="no"?>
<!DOCTYPE svg PUBLIC "-//W3C//DTD SVG 20010904//EN"
 "http://www.w3.org/TR/2001/REC-SVG-20010904/DTD/svg10.dtd">
<svg version="1.0" xmlns="http://www.w3.org/2000/svg"
 width="120.000000pt" height="120.000000pt" viewBox="0 0 120.000000 120.000000"
 preserveAspectRatio="xMidYMid meet">
<metadata>
Created by potrace 1.14, written by Peter Selinger 2001-2017
</metadata>
<g transform="translate(0.000000,120.000000) scale(0.100000,-0.100000)"
fill="#000000" stroke="none">
<path d="M555 1086 c-33 -6 -63 -13 -67 -14 -4 -1 -16 -5 -25 -8 -60 -17 -147
-72 -189 -117 -47 -52 -97 -144 -110 -202 -13 -61 -13 -221 0 -282 49 -232
227 -353 517 -353 124 0 231 20 310 59 l54 26 2 238 c1 235 1 237 -20 242 -12
3 -107 4 -212 3 l-190 -3 -3 -82 -3 -83 95 0 94 0 4 -52 c6 -95 6 -95 -75
-109 -124 -21 -234 18 -273 98 -24 48 -32 218 -13 266 30 78 89 126 172 141
64 12 198 8 273 -8 40 -8 78 -17 85 -18 11 -2 15 17 17 82 1 47 0 99 -3 116
-5 31 -8 33 -62 46 -111 28 -282 34 -378 14z"/>
</g>
</svg>
