<?xml version="1.0" standalone="no"?>
<!DOCTYPE svg PUBLIC "-//W3C//DTD SVG 20010904//EN"
 "http://www.w3.org/TR/2001/REC-SVG-20010904/DTD/svg10.dtd">
<svg version="1.0" xmlns="http://www.w3.org/2000/svg"
 width="600.000000pt" height="600.000000pt" viewBox="0 0 600.000000 600.000000"
 preserveAspectRatio="xMidYMid meet">
<metadata>
Created by potrace 1.14, written by Peter Selinger 2001-2017
</metadata>
<g transform="translate(0.000000,600.000000) scale(0.100000,-0.100000)"
fill="#000000" stroke="none">
<path d="M0 3000 l0 -3000 3000 0 3000 0 0 3000 0 3000 -3000 0 -3000 0 0
-3000z m3670 1930 c346 -19 617 -63 858 -137 l82 -25 0 -484 c0 -266 -1 -484
-3 -484 -2 0 -43 14 -93 30 -197 67 -363 99 -653 126 -226 20 -568 15 -706
-10 -422 -78 -662 -297 -746 -678 -40 -182 -44 -500 -8 -678 69 -348 256 -552
580 -634 237 -60 598 -50 862 24 l37 11 0 279 0 280 -385 0 -385 0 0 350 0
350 860 0 860 0 0 -973 0 -973 -127 -66 c-147 -77 -455 -185 -623 -218 -400
-81 -919 -91 -1305 -25 -177 31 -303 63 -430 110 -538 199 -894 586 -1044
1135 -127 463 -102 1117 58 1530 111 288 238 471 479 691 65 59 194 148 302
206 375 204 917 297 1530 263z"/>
</g>
</svg>
